# xmcd
#
# Track frame offsets: 
#        150
#        11548
#        23255
#        53122
#        65757
#        83182
#        96465
#        115715
#        139038
#        164291
#        177280
#        187868
#
# Disc length: 2688 seconds
#
# Revision: 2
# Processed by: cddbd v1.5.2PL0 Copyright (c) Steve Scherf et al.
# Submitted via: ExactAudioCopy v1.0b3
#
DISCID=910a7e0c
DTITLE=Peter Reimer - Back to the Roots
DYEAR=1997
DGENRE=Blues
TTITLE0=Drive Fast, Die Young
TTITLE1=Crying Or Trying
TTITLE2=Rag Bag
TTITLE3=Time In A Bottle
TTITLE4=Little Tin Soldier
TTITLE5=Big City Blues
TTITLE6=Quarter Of A Man
TTITLE7=Music Is My Life
TTITLE8=How Can A Poor Man Face Such Times And Live
TTITLE9=Heute hier, morgen dort
TTITLE10=Bookends
TTITLE11=Rain On Oliviatown
EXTD=
EXTT0=
EXTT1=
EXTT2=
EXTT3=
EXTT4=
EXTT5=
EXTT6=
EXTT7=
EXTT8=
EXTT9=
EXTT10=
EXTT11=
PLAYORDER=
